<?xml version="1.0" encoding="utf-8"?>
<!-- Generator: Adobe Illustrator 19.1.0, SVG Export Plug-In . SVG Version: 6.00 Build 0)  -->
<svg version="1.1" xmlns="http://www.w3.org/2000/svg" xmlns:xlink="http://www.w3.org/1999/xlink" x="0px" y="0px"
	 viewBox="0 0 200 200" enable-background="new 0 0 200 200" xml:space="preserve">
 
	 <style type="text/css"></style>

<g id="background">
	<circle cx="100.5" cy="99.944" r="94.5" fill="#96A6D8"/>
</g>
<g id="sun">
	<circle id="inner" fill="#FFFFFF" cx="100.434" cy="99.566" r="42.969"/>
	<polygon id="star" fill="#FFFFFF" points="100,40.783 104.632,70.756 118.299,43.681 113.442,73.618 134.807,52.092 
		120.937,79.063 147.908,65.193 126.382,86.558 156.319,81.701 129.244,95.368 159.217,100 129.244,104.632 156.319,118.299 
		126.382,113.442 147.908,134.807 120.937,120.937 134.807,147.908 113.442,126.382 118.299,156.319 104.632,129.244 100,159.217 
		95.368,129.244 81.701,156.319 86.558,126.382 65.193,147.908 79.063,120.937 52.092,134.807 73.618,113.442 43.681,118.299 
		70.756,104.632 40.783,100 70.756,95.368 43.681,81.701 73.618,86.558 52.092,65.193 79.063,79.063 65.193,52.092 86.558,73.618 
		81.701,43.681 95.368,70.756 "/>
	<circle id="outer" fill="none" stroke="#96A6D8" stroke-width="6" stroke-miterlimit="10" cx="100.5" cy="99.5" r="40.5"/>
</g>
</svg>
