<?xml version="1.0" encoding="utf-8"?>
<!-- Generator: Adobe Illustrator 19.1.0, SVG Export Plug-In . SVG Version: 6.00 Build 0)  -->
<svg version="1.1" xmlns="http://www.w3.org/2000/svg" xmlns:xlink="http://www.w3.org/1999/xlink" x="0px" y="0px"
	 viewBox="0 0 200 200" enable-background="new 0 0 200 200" xml:space="preserve">
	 
	 
	 <style type="text/css">
	 
	 path {
	 	  -webkit-transition: all .3s ease-in-out;
		  -moz-transition: all .3s ease-in-out;
		  -o-transition: all .3s ease-in-out;
		  transition: all .3s ease-in-out;}
		  
		  
	 path:hover{
		 -webkit-transform: translateY(25px);
		 -moz-transform: translateY(25px;
		 -o-transform: translateY(25px);
	     transform: translateY(25px);}</style>
	 
	 
<g id="background">
	<circle fill="#C6658A" cx="102.5" cy="97.944" r="94.5"/>
	<path fill="#FFFFFF" d="M88.279,56h28.41c1.292,0,2.34,1.048,2.34,2.34v47.571c0,1.292,1.048,2.34,2.34,2.34h15.698
		c2.076,0,3.124,2.502,1.667,3.981l-34.538,35.076c-0.917,0.931-2.418,0.931-3.334,0l-34.596-35.135
		c-1.448-1.47-0.422-3.959,1.642-3.981l15.307-0.165c1.282-0.014,2.314-1.057,2.314-2.34V58.34c0-1.292,1.048-2.34,2.34-2.34H88.279
		z"/>
</g>
<g id="arrow">
</g>
</svg>
