<?xml version="1.0" encoding="utf-8"?>
<!-- Generator: Adobe Illustrator 19.1.0, SVG Export Plug-In . SVG Version: 6.00 Build 0)  -->
<svg version="1.1" id="Layer_1" xmlns="http://www.w3.org/2000/svg" xmlns:xlink="http://www.w3.org/1999/xlink" x="0px" y="0px"
	 viewBox="0 0 200 200" enable-background="new 0 0 200 200" xml:space="preserve">
	  
	  <style type="text/css">
	  
	   #plane {
	 	  -webkit-transition: all .3s ease-in-out;
		  -moz-transition: all .3s ease-in-out;
		  -o-transition: all .3s ease-in-out;
		  transition: all .3s ease-in-out;}
		  
		  
	 #plane:hover{
		 -webkit-transform: translate(-20px,-20px);
		 -moz-transform: translate(-20px,-20px);
		 -o-transform: translate(-20px,-20px);
	     transform: translate(-20px,-20px);}
		 
		 </style>
	 
<g id="background">
	<circle cx="102.5" fill="#825EA7" cy="97.944" r="94.5"/>
	
	
</g>
<g id="plane">
	<path id="left" fill="#FFFFFF" d="M59.182,52.035c-0.039,0.012-0.078,0.03-0.117,0.041c-0.27,0.402-0.529,0.907-0.769,1.453
		c-0.44,4.917,1.254,9.961,3.951,14.075c3.082,4.701,7.368,8.378,11.686,11.859c0.971,0.783,2.002,1.642,2.347,2.871
		c0.257,0.917,0.088,1.9-0.084,2.84c-0.966,5.298-1.933,10.602-3.301,15.802c-1.185,4.509-2.679,8.989-2.932,13.658
		c-0.339,6.258,1.724,12.6,5.537,17.427c1.137,1.439,3.433,1.046,4.038-0.686c3.716-10.643,7.195-21.377,10.433-32.19
		c0.495-1.652,2.54-2.218,3.809-1.05l19.971,18.394c0.885,0.815,1.817,1.711,2.082,2.912c0.24,1.09-0.119,2.214-0.451,3.277
		c-2.359,7.561-3.523,15.525-3.436,23.477c0.01,0.984,0.686,1.811,1.62,2.122c0.524,0.175,1.037,0.384,1.536,0.625
		c1.197,0.58,2.621,0.119,3.196-1.081c3.387-7.066,7.461-13.771,12.14-19.98L59.182,52.035z"/>
	<path id="right" fill="#FFFFFF" d="M152.362,111.573c-0.224-0.507-0.415-1.027-0.572-1.557c-0.278-0.944-1.082-1.648-2.065-1.693
		c-7.943-0.365-15.944,0.519-23.583,2.611c-1.074,0.294-2.21,0.614-3.291,0.336c-1.191-0.306-2.054-1.27-2.837-2.182l-17.683-20.603
		c-1.123-1.308-0.485-3.332,1.182-3.769c10.919-2.858,21.768-5.96,32.535-9.3c1.752-0.544,2.226-2.824,0.827-4.011
		c-4.69-3.98-10.956-6.264-17.222-6.144c-4.674,0.089-9.204,1.425-13.752,2.452c-5.245,1.184-10.58,1.965-15.908,2.745
		c-0.945,0.138-1.932,0.273-2.84-0.016c-1.216-0.388-2.039-1.449-2.787-2.446c-3.329-4.436-6.853-8.849-11.443-12.093
		c-3.096-2.189-6.767-3.902-10.544-4.48c-0.512,0.056-1.024,0.1-1.539,0.101c-0.099,0-0.169-0.003-0.227-0.007
		c-0.029,0.014-0.063,0.03-0.105,0.049c-0.216,0.064-0.427,0.139-0.636,0.223c-0.022,0.009-0.031,0.013-0.054,0.023
		c-0.251,0.106-0.501,0.191-0.752,0.264c-0.198,0.295-0.392,0.639-0.575,1.022l71.946,74.782
		c6.369-4.459,13.551-10.012,20.731-13.15C152.389,114.196,152.9,112.79,152.362,111.573z"/>
</g>
</svg>