<?xml version="1.0" encoding="utf-8"?>
<!-- Generator: Adobe Illustrator 22.1.0, SVG Export Plug-In . SVG Version: 6.00 Build 0)  -->
<svg version="1.1" id="Layer_1" xmlns="http://www.w3.org/2000/svg" xmlns:xlink="http://www.w3.org/1999/xlink" x="0px" y="0px"
	 viewBox="0 0 216 216" style="enable-background:new 0 0 216 216;" xml:space="preserve">
<g>
	<path d="M78.1,19.5c0-0.2,0-0.4,0.1-0.5c-0.3-1.6-0.8-3.2-1.3-4.7c-1.7-4.5-4.5-5.4-8.7-3.1c-2,1.1-3.9,2.3-5.7,3.6
		c-4.2,3-8.9,4.5-14,3.9c-3.3-0.4-6.6-1.3-9.9-1.6c-4.2-0.4-6.5,1.9-6.1,6c1.6,15.3,8.5,27.2,22.5,34.4c7.6,3.9,14.6,1.7,19-5.6
		c4-6.6,5.4-14,5.7-22.1c-0.1-1.6-0.2-3.6-0.4-5.5C78.8,22.6,78.4,21.1,78.1,19.5z M41,35.6c1.3-3,3-5.7,6.3-5.8
		c3.2,0,4.6,2.8,6,5.6C49.2,32.5,45.1,32,41,35.6z M64.1,51.4c-5.6,2.1-13.6-1.2-17-7.1c16.6-0.2,16.8-0.2,25.4-5.6
		C73.4,43.5,69.5,49.3,64.1,51.4z M62.9,33.4c-0.5-3.6,0.8-6.7,3.1-7.5c3.2-1.1,5.6,0.8,8,2.7C68.9,27.2,65.3,28.7,62.9,33.4z"/>
	<path d="M101.3,70.2c-4.7-0.3-8.3-2.4-10.7-6.1c-8.7-13.8-8.5-28-1.3-42.3c1.9-3.7,5-4.3,8.4-1.7c1.5,1.1,2.8,2.4,4.1,3.7
		c4.9,5.1,10.8,7.5,18,7c2.6-0.2,5.3,0,7.9,0.3c2.9,0.4,4.3,1.9,4,4.7c-0.3,2.9-1,5.8-2,8.6c-4,10.4-10.5,18.7-20.9,23.5
		C106.4,69,103.8,69.5,101.3,70.2z M110.8,63.9c0.6-7.3-2.3-12.2-7.9-13.7c-4.9-1.4-11.3,1.1-13.3,4.9
		C97.4,56.1,104.3,59.1,110.8,63.9z M122.1,48.3c-3.6-2.3-7.1-4.5-10.7-6.8c0,2.9-0.2,5.9,2.5,7.7C116.8,51.1,119.6,49.6,122.1,48.3
		z M90.8,35.6c1.1,2.6,1.9,5.8,5.4,6.3c3.1,0.5,5-1.8,6.6-3.5C98.8,37.5,94.9,36.6,90.8,35.6z"/>
	<path d="M42.4,56.4c-3.5-0.8-7.3-0.2-10.9,0.2c-4.7,0.5-9.3,1.4-14,1.9c-1,0.1-2.5-0.7-2.9-1.6c-0.4-0.8,0.2-2.3,0.9-3.1
		c2.9-3.7,6.9-5.7,11.2-7.2c3.1-1,6.3-1.8,9.6-2.7c-1.1-1.1-2.1-2.4-2.9-3.8c-0.2,0.1-0.3,0.1-0.5,0.2c-2.7,1-5.5,1.7-8.2,2.8
		c-5.2,2.1-10.2,4.7-13.5,9.6c-3.1,4.6-1.4,8.6,4,9.9c4.3,1,8.4-0.2,12.5-1.2c3.1-0.8,6.2-1.5,9.4-1.7c3.8-0.3,7.3,1.8,7.8,4.3
		c0.7,3.4-1.2,5.9-3.8,7.7c-2.1,1.4-4.4,2.6-6.7,3.9c1.9,1,3.8,1.8,5.8,2.6c2.7-2.1,5.6-4,7.6-6.6C52.4,66,49.6,58,42.4,56.4z"/>
	<path d="M145.3,88.2c0.4-1.6,0.6-3.1,0.6-4.8c-0.2,0.1-0.4,0.2-0.7,0.3c-6.6,2.6-13.2,2.8-19.4-0.9c-3.8-2.2-4.1-5.9-0.6-8.6
		c2-1.6,4.3-2.7,6.5-4c2.3-1.4,4.8-2.6,7-4.2c3.1-2.3,2.9-5-0.1-7.3c-3.6-2.8-7.9-4.1-12.2-5.2c-0.8,1.2-1.5,2.2-2.3,3.5
		c2,0.5,3.6,0.8,5.2,1.4c2,0.8,4.8,1.1,5,3.8c0.2,2.6-2.5,3.2-4.3,4.3c-3.2,2-6.6,3.7-9.5,6.1c-4.9,4-4.7,8.9,0.5,12.6
		c6.6,4.8,14.1,5.9,22,3.9C144,88.8,144.7,88.5,145.3,88.2z"/>
	<path d="M87.4,70.4c-0.6-0.9-1.2-1.7-1.9-2.5c-2.6-3.4-5.6-6.7-7.9-10.3c-3-4.9-0.4-10.4,5.1-10.5c0.1,0,0.2-0.2,0.3-0.3
		c-0.1-0.7-0.2-1.4-0.2-2.2c-0.1-0.8-0.1-1.5-0.1-2.3c-3.6-0.3-3.4-0.2-4.7,2.8c-1.6,3.6-3.6,6.9-5.4,10.4c-0.3,0.6-0.6,1.7-0.2,2.2
		c2.2,3.3,4.5,6.4,6.8,9.6c1.4,1.9,3.3,3.5,4.5,5.6c0.6,1.1,0.6,3.2,0,4.2c-0.6,1-2.5,1.3-3.9,1.4c-1.1,0.1-2.3-0.5-3.4-1
		c-4-1.7-7.1-4.4-9.8-8.1C66,71.2,65.4,73,65,74.9c0.4,0.7,1,1.3,1.7,1.9c3.7,3.2,7.9,5.1,12.7,5.9c3.5,0.6,6.6-0.6,8.6-3.6
		C90.1,76.1,89.3,73.2,87.4,70.4z"/>
	<path d="M105.9,8.5c-0.6-0.1-1.3,0.1-1.9,0.2C94.5,10,87.3,15.2,81,22c-0.2,0.2-0.4,0.5-0.5,0.8c0.4,1.9,0.7,3.8,1,5.7
		c4.3-4.8,8-9.8,13.8-12.5c2.7-1.3,5.6-2.6,8.5-3c3.5-0.6,5.3,1.8,4.3,5.2c-0.6,2-1.5,3.9-2.1,5.9c-0.1,0.2-0.1,0.4-0.1,0.6
		c1.2,0.9,2.6,1.6,4.1,2.1c0.3-1.9,0.6-3.6,0.9-5.3c0.3-1.2,0.9-2.4,1.4-3.6C115.5,10.7,111.7,9,105.9,8.5z"/>
	<path d="M130.7,29.9c1.2-0.8,2-1.5,2.4-2.2c-0.8-1.7-1.7-3.4-2.5-5.1c-1.8,2.1-3.7,4.2-5.4,6.1C127.2,29,129,29.3,130.7,29.9z"/>
</g>
</svg>
